<?xml version="1.0" encoding="utf-8"?>
<!-- Generator: Adobe Illustrator 24.3.0, SVG Export Plug-In . SVG Version: 6.00 Build 0)  -->
<svg version="1.1" id="Layer_1" xmlns="http://www.w3.org/2000/svg" xmlns:xlink="http://www.w3.org/1999/xlink" x="0px" y="0px"
	 viewBox="0 0 2000 2000" style="enable-background:new 0 0 2000 2000;" xml:space="preserve">
<style type="text/css">
	.st0{fill:#FFFFFF;}
	.st1{fill:url(#SVGID_1_);}
	.st2{fill:url(#SVGID_2_);}
	.st3{fill:url(#SVGID_3_);}
	.st4{fill:url(#SVGID_4_);}
	.st5{fill:url(#SVGID_5_);}
	.st6{fill:url(#SVGID_6_);}
</style>
<g>
	<polygon class="st0" points="1643.61,1119.74 1576.03,1068.15 1411.77,1174.76 1573.93,1102.46 	"/>
	<g>
		<path d="M1594.53,1038.14c-30.95-20.32-125.16,61.98-190.16,98.93c-46.47,26.41-88.98,0.04-128.89-30.5
			c40.04-14.71,82.11-32.38,112.53-50.83c78.19-47.44,312.75-224.32,169.19-485.83c-7.55-13.74-15.72-26.73-24.42-39.03
			l129.66-103.93h-62.2l-91.6,73.11c-164.18-190.03-463.31-183.09-463.31-183.09s313.18,173.69,177.96,387.53
			c-92.95,19.88-163.44,87.18-163.44,87.18s-0.02-0.02-0.06-0.04l-10.14-4.91c-0.04,0-0.08-0.02-0.12-0.04
			c-9.66-3.94-25.58-8.79-45.34-8.69c-15.55,0.08-33.48,3.21-52.64,12.23l-2.99,1.45c0,0-70.51-67.3-163.44-87.18
			C649.9,490.67,963.1,316.97,963.1,316.97s-303.31-7.04-466.74,187.08l-96.6-77.11h-62.2l135.05,108.25
			c-7.58,11.01-14.73,22.57-21.4,34.71c-143.56,261.51,91.02,438.39,169.21,485.83c28.99,17.58,68.54,34.45,106.84,48.73
			c-40.71,31.41-84.09,59.62-131.63,32.6c-65.01-36.95-159.21-119.25-190.16-98.93c-30.95,20.32-119.22,100.81-119.22,100.81
			s193.27,85.83,250.86,108.72c57.58,22.89,84.54,32.36,146.91-29.69c12.35-12.29,52.06-45.63,107.8-91.19
			c35.97,11.59,61.89,18.66,61.89,18.66l-65.37,79.47c0,0,134.35,79.47,215.86,461.45c81.52-381.99,215.88-461.45,215.88-461.45
			l-65.39-79.47c0,0,23.05-6.29,55.85-16.73c54.5,44.57,93.25,77.14,105.43,89.25c62.37,62.05,89.33,52.58,146.91,29.69
			c57.58-22.89,250.86-108.72,250.86-108.72S1625.48,1058.46,1594.53,1038.14z"/>
		<linearGradient id="SVGID_1_" gradientUnits="userSpaceOnUse" x1="272.3083" y1="1016.3096" x2="1727.6917" y2="1016.3096">
			<stop  offset="0" style="stop-color:#A6AAAD"/>
			<stop  offset="0.499" style="stop-color:#FFFFFF"/>
			<stop  offset="1" style="stop-color:#A6AAAD"/>
		</linearGradient>
		<path class="st1" d="M959.07,316.94c2.64,0,4.03,0.03,4.03,0.03S649.9,490.67,785.13,704.5c92.93,19.88,163.44,87.18,163.44,87.18
			l2.99-1.45c19.16-9.02,37.09-12.15,52.64-12.23c0.19,0,0.39,0,0.58,0c19.49,0,35.19,4.79,44.76,8.69
			c0.04,0.02,0.08,0.04,0.12,0.04l10.14,4.91c0.04,0.02,0.06,0.04,0.06,0.04s70.49-67.3,163.44-87.18
			c135.22-213.83-177.96-387.53-177.96-387.53s1.38-0.03,4.02-0.03c36.1,0,306.29,6.04,459.29,183.12l91.6-73.11h62.2
			l-129.66,103.93c8.7,12.29,16.88,25.28,24.42,39.03c143.56,261.51-91,438.39-169.19,485.83c-30.42,18.45-72.49,36.12-112.53,50.83
			c28.4,21.73,58.1,41.34,89.62,41.34c12.78,0,25.86-3.23,39.27-10.85c58.03-32.98,139.33-102.11,178.13-102.11
			c4.66,0,8.71,1,12.03,3.18c30.95,20.32,119.22,100.81,119.22,100.81s-193.27,85.83-250.86,108.72
			c-25.21,10.02-44.55,17.47-63.57,17.47c-24.41,0-48.28-12.28-83.34-47.16c-12.18-12.11-50.93-44.68-105.43-89.25
			c-32.8,10.44-55.85,16.73-55.85,16.73l65.39,79.47c0,0-134.37,79.47-215.88,461.45c-81.52-381.99-215.86-461.45-215.86-461.45
			l65.37-79.47c0,0-25.91-7.07-61.89-18.66c-55.73,45.56-95.45,78.9-107.8,91.19c-35.07,34.88-58.93,47.16-83.34,47.16
			c-19.01,0-38.36-7.45-63.57-17.47c-57.58-22.89-250.86-108.72-250.86-108.72s88.27-80.49,119.22-100.81
			c3.32-2.18,7.37-3.18,12.03-3.18c38.8,0.01,120.1,69.13,178.13,102.11c13.41,7.62,26.49,10.85,39.27,10.85
			c32.53,0,63.14-20.9,92.36-43.45c-38.3-14.28-77.86-31.15-106.84-48.73c-78.19-47.44-312.77-224.32-169.21-485.83
			c6.67-12.14,13.82-23.7,21.4-34.71L337.56,426.94h62.2l96.6,77.11C648.73,323.06,922.71,316.94,959.07,316.94 M959.07,309.21
			c-21.33,0-98.06,1.87-189.81,25.94c-53.1,13.93-101.93,32.95-145.13,56.53c-50.7,27.67-93.99,61.86-128.78,101.68l-90.77-72.45
			l-2.11-1.69h-2.71h-62.2h-21.99l17.16,13.76l129.49,103.8c-6.32,9.54-12.29,19.41-17.79,29.42
			c-33.93,61.8-49.42,123.61-46.06,183.71c2.82,50.38,18.86,99.91,47.69,147.22c53.98,88.59,137.12,145.06,170.35,165.23
			c23.21,14.08,55.14,28.99,95.05,44.39c-23.59,17.4-49.97,33.45-76.55,33.45c-12.21,0-23.8-3.22-35.45-9.84
			c-19.19-10.91-41.58-26.25-63.24-41.08c-46.56-31.9-90.53-62.03-118.71-62.03c0,0-0.01,0-0.01,0c-6.3,0-11.77,1.5-16.27,4.45
			c-31.11,20.42-116.56,98.26-120.19,101.56l-8.74,7.97l10.81,4.8c1.93,0.86,194.07,86.16,251.14,108.84
			c24.32,9.67,45.33,18.02,66.42,18.02c27.79,0,53.51-14.31,88.79-49.41c11.09-11.04,46.07-40.65,103.99-88.02
			c19.85,6.35,36.45,11.26,46.77,14.24l-57.86,70.34l-5.73,6.97l7.76,4.59c0.31,0.18,33.34,20.51,75.8,86.56
			c24.98,38.87,48.28,85.7,69.24,139.21c26.22,66.93,48.83,144.53,67.21,230.65l7.56,35.41l7.56-35.41
			c18.38-86.12,40.99-163.72,67.21-230.65c20.96-53.51,44.26-100.34,69.24-139.21c42.46-66.06,75.5-86.38,75.83-86.58l7.68-4.61
			l-5.67-6.93l-57.88-70.34c9.26-2.67,23.56-6.9,40.72-12.31c56.5,46.25,90.69,75.21,101.64,86.1c35.28,35.09,61,49.41,88.79,49.41
			c21.09,0,42.1-8.35,66.42-18.02c57.07-22.68,249.2-107.98,251.14-108.84l10.81-4.8l-8.74-7.97
			c-3.62-3.3-89.08-81.14-120.19-101.56c-4.49-2.95-9.97-4.45-16.27-4.45c-28.17,0-72.15,30.13-118.71,62.03
			c-21.66,14.84-44.05,30.18-63.24,41.09c-11.65,6.62-23.24,9.84-35.45,9.84c-24,0-47.25-12.23-73.64-31.34
			c42.48-16.15,76.27-31.78,100.56-46.51c33.24-20.17,116.37-76.63,170.35-165.23c28.82-47.31,44.86-96.84,47.68-147.22
			c3.36-60.1-12.14-121.91-46.07-183.71c-6.33-11.52-13.28-22.86-20.73-33.79l124.03-99.42l17.16-13.76h-21.99h-62.2h-2.71
			l-2.11,1.69l-85.84,68.52c-34.9-38.96-78.1-72.41-128.51-99.49c-42.95-23.07-91.39-41.69-143.97-55.32
			c-90.89-23.57-166.68-25.4-187.75-25.4c-2.77,0-4.2,0.03-4.2,0.03l-28.43,0.68l24.86,13.8c0.42,0.23,42.82,23.94,88.8,63.71
			c42.04,36.37,95.81,94.02,113.21,162.15c12.84,50.26,4.38,100.06-25.14,148.07c-80.99,18.33-143.74,70.36-159.94,84.78l-5.49-2.66
			l-1.59-0.77h-0.3c-10.43-4.11-26.57-8.73-46.34-8.73l-0.62,0c-18.43,0.09-36.66,4.19-54.22,12.19
			c-16.15-14.38-78.94-66.47-159.98-84.81c-29.52-48-37.98-97.8-25.14-148.07c17.4-68.13,71.17-125.78,113.21-162.15
			c45.98-39.77,88.39-63.48,88.81-63.71l24.87-13.81l-28.44-0.67C963.28,309.25,961.83,309.21,959.07,309.21L959.07,309.21z"/>
	</g>
	<g>
		<linearGradient id="SVGID_2_" gradientUnits="userSpaceOnUse" x1="461.5131" y1="945.6699" x2="1546.9026" y2="945.6699">
			<stop  offset="0" style="stop-color:#A6AAAD"/>
			<stop  offset="0.499" style="stop-color:#FFFFFF"/>
			<stop  offset="1" style="stop-color:#A6AAAD"/>
		</linearGradient>
		<path class="st2" d="M1499.85,881.57c-92.53,40.37-271.18,70.83-276.74,71.77c215.23-16.82,245.07-30.32,245.96-30.73
			c-135.02,143.55-312.75,170.89-312.75,170.89c85.46-51.27,116.22-90.58,116.22-90.58c-124.77,8.55-203.38,92.29-203.38,92.29
			c22.22,71.78,82.04,131.6,82.04,131.6l-23.93,27.35l-56.4-71.78l34.18,97.42c-29.05,51.27-52.98,140.15-52.98,140.15
			l-15.38-176.04l-32.47,293.97l-32.47-293.97l-15.38,176.04c0,0-23.93-88.87-52.98-140.15l34.18-97.42l-56.4,71.78l-23.93-27.35
			c0,0,59.82-59.82,82.04-131.6c0,0-78.62-83.75-203.38-92.29c0,0,30.76,39.31,116.22,90.58c0,0-177.75-27.35-312.77-170.91
			c0,0,27.33,13.67,245.98,30.75c-5.55-0.94-184.21-31.4-276.74-71.77c0,0-54.69-76.91-46.15-191.42c0,0,37.6,73.49,152.09,114.49
			c-1.69-1.4-109.52-91.39-128.17-194.82c0,0,27.35-58.11,68.36-100.84c0,0,13.67,95.71,90.58,160.66c0,0-73.49-128.18-17.09-220.48
			c0,0,71.77-59.82,244.37-95.69C868.93,354.68,576.18,454,730.75,681.6c0,0-203.38,179.46,189.71,288.84l50.23-97.16l0.02-0.03
			c1.95-5.67,3.69-10.94,4.97-15.25c6.53-21.83,11.06-42.81,30.63-42.52c19.55,0.29,35.72,8.78,35.72,8.78s21.26-3.11,26.94,9.08
			s0,22.12,0,22.12s-9.93-16.44-25.52-5.95c-9.25,6.24-12.51,12.75-11.19,21.24l55.7,99.69
			c393.1-109.38,189.71-288.84,189.71-288.84c154.57-227.6-138.18-326.92-141.82-328.13c172.6,35.87,244.37,95.69,244.37,95.69
			c56.4,92.29-17.09,220.48-17.09,220.48c76.91-64.95,90.58-160.66,90.58-160.66c41.02,42.73,68.36,100.84,68.36,100.84
			c-18.65,103.44-126.47,193.42-128.17,194.82c114.49-41,152.09-114.49,152.09-114.49C1554.54,804.66,1499.85,881.57,1499.85,881.57
			z"/>
	</g>
	<g>
		<linearGradient id="SVGID_3_" gradientUnits="userSpaceOnUse" x1="782.0234" y1="919.8649" x2="882.8609" y2="919.8649">
			<stop  offset="0" style="stop-color:#A6AAAD"/>
			<stop  offset="0.499" style="stop-color:#FFFFFF"/>
			<stop  offset="1" style="stop-color:#A6AAAD"/>
		</linearGradient>
		<path class="st3" d="M882.86,941.39c0,0-52.98-10.25-100.84-42.73C782.02,898.66,845.26,891.82,882.86,941.39z"/>
	</g>
	<g>
		<linearGradient id="SVGID_4_" gradientUnits="userSpaceOnUse" x1="712.7473" y1="842.2601" x2="925.2822" y2="842.2601">
			<stop  offset="0" style="stop-color:#A6AAAD"/>
			<stop  offset="0.499" style="stop-color:#FFFFFF"/>
			<stop  offset="1" style="stop-color:#A6AAAD"/>
		</linearGradient>
		<path class="st4" d="M905.08,948.23c0,0-5.13-34.18-49.56-49.56c-44.44-15.38-100.84-25.64-123.06-54.69
			s-23.93-71.78-13.67-107.67c0,0,1.71,27.35,56.4,51.27c54.69,23.93,70.07,39.31,70.07,39.31s-10.25-41.02-46.15-64.95
			c0,0,70.07,17.09,102.55,95.71c0,0,5.13-11.96,5.13-35.89C906.79,821.75,949.52,886.7,905.08,948.23z"/>
	</g>
	<g>
		<linearGradient id="SVGID_5_" gradientUnits="userSpaceOnUse" x1="1125.5547" y1="919.8649" x2="1226.3923" y2="919.8649">
			<stop  offset="0" style="stop-color:#A6AAAD"/>
			<stop  offset="0.499" style="stop-color:#FFFFFF"/>
			<stop  offset="1" style="stop-color:#A6AAAD"/>
		</linearGradient>
		<path class="st5" d="M1125.55,941.39c0,0,52.98-10.25,100.84-42.73C1226.39,898.66,1163.16,891.82,1125.55,941.39z"/>
	</g>
	<g>
		<linearGradient id="SVGID_6_" gradientUnits="userSpaceOnUse" x1="1083.1335" y1="842.2601" x2="1295.6683" y2="842.2601">
			<stop  offset="0" style="stop-color:#A6AAAD"/>
			<stop  offset="0.499" style="stop-color:#FFFFFF"/>
			<stop  offset="1" style="stop-color:#A6AAAD"/>
		</linearGradient>
		<path class="st6" d="M1103.34,948.23c0,0,5.13-34.18,49.56-49.56c44.44-15.38,100.84-25.64,123.06-54.69
			c22.22-29.05,23.93-71.78,13.67-107.67c0,0-1.71,27.35-56.4,51.27s-70.07,39.31-70.07,39.31s10.25-41.02,46.15-64.95
			c0,0-70.07,17.09-102.55,95.71c0,0-5.13-11.96-5.13-35.89C1101.63,821.75,1058.9,886.7,1103.34,948.23z"/>
	</g>
	<polygon class="st0" points="356.39,1119.74 423.97,1068.15 588.23,1174.76 426.07,1102.46 	"/>
	<polygon class="st0" points="1654.05,1119.74 1586.47,1068.15 1422.21,1174.76 1584.37,1102.46 	"/>
</g>
</svg>
